<svg id="svg" version="1.1" width="140" height="140" viewBox="0 0 140 140" xmlns="http://www.w3.org/2000/svg"><path d="M47.900 41.849 C 42.185 45.473,37.973 50.806,33.571 59.993 C 29.477 68.534,28.272 74.828,29.952 78.884 C 31.897 83.580,38.606 85.522,42.559 82.532 C 44.417 81.126,44.381 81.062,41.729 81.032 C 39.797 81.010,38.628 80.278,37.871 78.616 C 35.495 73.401,41.482 57.279,48.942 48.803 C 56.167 40.595,59.832 42.134,57.903 52.564 C 56.654 59.321,51.781 73.907,46.643 86.262 C 44.639 91.081,43.000 95.623,43.000 96.357 C 43.000 98.465,46.413 101.000,49.251 101.000 C 51.372 101.000,52.060 100.317,53.023 97.250 C 54.499 92.554,68.085 64.751,68.635 65.302 C 68.858 65.524,67.907 70.385,66.521 76.103 C 65.136 81.822,64.002 86.805,64.001 87.179 C 63.998 88.806,67.365 90.997,69.821 90.966 C 72.175 90.936,72.917 90.017,75.933 83.407 C 80.801 72.736,81.991 71.353,80.643 77.932 C 79.662 82.722,79.743 83.339,81.524 84.641 C 85.228 87.350,87.076 85.971,89.754 78.500 C 92.198 71.682,97.739 61.898,99.917 60.551 C 100.600 60.129,101.000 60.965,101.000 62.819 C 101.000 66.232,102.284 67.509,106.655 68.443 C 110.182 69.197,111.859 67.740,110.019 65.522 C 109.319 64.679,108.990 61.465,109.183 57.348 L 109.500 50.564 106.000 48.826 L 102.500 47.087 99.674 50.294 L 96.848 53.500 99.095 48.808 C 100.963 44.907,101.124 43.854,100.048 42.558 C 99.337 41.701,98.152 41.000,97.414 41.000 C 96.195 41.000,87.526 53.460,79.239 67.123 C 76.587 71.496,76.094 71.940,76.602 69.500 C 76.945 67.850,78.786 62.530,80.692 57.678 C 82.599 52.826,83.911 48.209,83.607 47.419 C 83.304 46.629,81.920 45.465,80.532 44.833 C 77.177 43.304,75.921 44.510,69.020 55.875 C 66.012 60.830,63.478 64.798,63.389 64.692 C 63.301 64.586,63.897 61.209,64.713 57.186 C 67.246 44.718,64.725 39.000,56.696 39.000 C 53.682 39.000,51.045 39.854,47.900 41.849 " stroke="none" fill="black" fill-rule="evenodd"/></svg>